<svg xmlns="http://www.w3.org/2000/svg" width="1200" height="675" viewBox="0 0 1200 675">
  <defs>
    <radialGradient id="g" cx="30%" cy="30%" r="80%">
      <stop offset="0%" stop-color="#6366F1" stop-opacity="0.30"/>
      <stop offset="60%" stop-color="#0B101F" stop-opacity="1"/>
      <stop offset="100%" stop-color="#050914" stop-opacity="1"/>
    </radialGradient>
    <linearGradient id="b" x1="0" y1="0" x2="1" y2="1">
      <stop offset="0%" stop-color="#818CF8" stop-opacity="0.55"/>
      <stop offset="100%" stop-color="#4F46E5" stop-opacity="0.05"/>
    </linearGradient>
  </defs>
  <rect width="1200" height="675" fill="url(#g)"/>
  <rect x="56" y="56" width="1088" height="563" rx="28" fill="rgba(255,255,255,0.03)" stroke="rgba(255,255,255,0.10)"/>
  <rect x="78" y="78" width="1044" height="519" rx="22" fill="url(#b)" opacity="0.30"/>
  <!-- Bar chart visualisation -->
  <rect x="200" y="420" width="60" height="100" rx="6" fill="#6366F1" opacity="0.55"/>
  <rect x="290" y="360" width="60" height="160" rx="6" fill="#6366F1" opacity="0.65"/>
  <rect x="380" y="290" width="60" height="230" rx="6" fill="#818CF8" opacity="0.70"/>
  <rect x="470" y="340" width="60" height="180" rx="6" fill="#6366F1" opacity="0.60"/>
  <rect x="560" y="270" width="60" height="250" rx="6" fill="#A5B4FC" opacity="0.75"/>
  <rect x="650" y="310" width="60" height="210" rx="6" fill="#6366F1" opacity="0.65"/>
  <rect x="740" y="240" width="60" height="280" rx="6" fill="#818CF8" opacity="0.80"/>
  <rect x="830" y="300" width="60" height="220" rx="6" fill="#6366F1" opacity="0.65"/>
  <!-- Trend line -->
  <polyline points="230,415 320,355 410,285 500,335 590,265 680,305 770,235 860,295" fill="none" stroke="#C7D2FE" stroke-width="4" stroke-opacity="0.70" stroke-linejoin="round"/>
  <!-- Risk label dots -->
  <circle cx="590" cy="265" r="10" fill="#F472B6" opacity="0.90"/>
  <circle cx="770" cy="235" r="10" fill="#F472B6" opacity="0.90"/>
  <text x="100" y="170" font-family="Inter, ui-sans-serif, system-ui" font-size="64" fill="rgba(255,255,255,0.92)" font-weight="700">Financial Risk Intelligence</text>
  <text x="100" y="230" font-family="Inter, ui-sans-serif, system-ui" font-size="30" fill="rgba(255,255,255,0.62)" font-weight="500">XGBoost • Monte Carlo VaR • SHAP • Streamlit</text>
  <circle cx="1030" cy="165" r="8" fill="#818CF8" opacity="0.85"/>
  <circle cx="1058" cy="165" r="8" fill="#818CF8" opacity="0.55"/>
  <circle cx="1086" cy="165" r="8" fill="#818CF8" opacity="0.35"/>
</svg>
